<mxfile host="app.diagrams.net" modified="2022-06-20T07:36:20.174Z" agent="5.0 (Windows NT 10.0; Win64; x64) AppleWebKit/537.36 (KHTML, like Gecko) Chrome/102.0.0.0 Safari/537.36" etag="XXJ_2GXK8soIBD4inMsE" version="20.0.1" type="github">
  <diagram id="QPi6hB3CuGemHGrHypaZ" name="Page-1">
    <mxGraphModel dx="1822" dy="762" grid="1" gridSize="10" guides="1" tooltips="1" connect="1" arrows="1" fold="1" page="0" pageScale="1" pageWidth="850" pageHeight="1100" math="0" shadow="0">
      <root>
        <mxCell id="0" />
        <mxCell id="1" parent="0" />
        <mxCell id="lAS-XWzIKTXeHEHVnumr-2" value="" style="aspect=fixed;html=1;points=[];align=center;image;fontSize=12;image=img/lib/azure2/networking/Load_Balancers.svg;rounded=0;dashed=1;fillColor=none;" vertex="1" parent="1">
          <mxGeometry x="360" y="157" width="50" height="50" as="geometry" />
        </mxCell>
        <mxCell id="lAS-XWzIKTXeHEHVnumr-3" value="" style="aspect=fixed;html=1;points=[];align=center;image;fontSize=12;image=img/lib/azure2/compute/Virtual_Machine.svg;rounded=0;dashed=1;fillColor=none;" vertex="1" parent="1">
          <mxGeometry x="610" y="163" width="47.44" height="44" as="geometry" />
        </mxCell>
        <mxCell id="lAS-XWzIKTXeHEHVnumr-5" value="10.10.81.4" style="text;html=1;align=left;verticalAlign=middle;resizable=0;points=[];autosize=1;strokeColor=none;fillColor=none;" vertex="1" parent="1">
          <mxGeometry x="660" y="170" width="70" height="20" as="geometry" />
        </mxCell>
        <mxCell id="lAS-XWzIKTXeHEHVnumr-6" value="LoadBalancer&lt;br&gt;13.76.198.8" style="text;html=1;align=left;verticalAlign=middle;resizable=0;points=[];autosize=1;strokeColor=none;fillColor=none;" vertex="1" parent="1">
          <mxGeometry x="360" y="207" width="90" height="30" as="geometry" />
        </mxCell>
        <mxCell id="lAS-XWzIKTXeHEHVnumr-8" value="" style="aspect=fixed;html=1;points=[];align=center;image;fontSize=12;image=img/lib/azure2/compute/Virtual_Machine.svg;rounded=0;dashed=1;fillColor=none;" vertex="1" parent="1">
          <mxGeometry x="610" y="390" width="47.44" height="44" as="geometry" />
        </mxCell>
        <mxCell id="lAS-XWzIKTXeHEHVnumr-9" value="10.10.82.5" style="text;html=1;align=center;verticalAlign=middle;resizable=0;points=[];autosize=1;strokeColor=none;fillColor=none;" vertex="1" parent="1">
          <mxGeometry x="662.4399999999999" y="414" width="70" height="20" as="geometry" />
        </mxCell>
        <mxCell id="lAS-XWzIKTXeHEHVnumr-18" value="Web Server" style="text;html=1;align=center;verticalAlign=middle;resizable=0;points=[];autosize=1;strokeColor=none;fillColor=none;" vertex="1" parent="1">
          <mxGeometry x="652.44" y="150" width="80" height="20" as="geometry" />
        </mxCell>
        <mxCell id="lAS-XWzIKTXeHEHVnumr-19" value="DB Server" style="text;html=1;align=center;verticalAlign=middle;resizable=0;points=[];autosize=1;strokeColor=none;fillColor=none;" vertex="1" parent="1">
          <mxGeometry x="662.44" y="394" width="70" height="20" as="geometry" />
        </mxCell>
        <mxCell id="lAS-XWzIKTXeHEHVnumr-23" value="" style="endArrow=classic;html=1;rounded=0;exitX=1.04;exitY=0.5;exitDx=0;exitDy=0;exitPerimeter=0;" edge="1" parent="1" source="lAS-XWzIKTXeHEHVnumr-2">
          <mxGeometry width="50" height="50" relative="1" as="geometry">
            <mxPoint x="460" y="220" as="sourcePoint" />
            <mxPoint x="610" y="182" as="targetPoint" />
          </mxGeometry>
        </mxCell>
        <mxCell id="lAS-XWzIKTXeHEHVnumr-30" value="" style="endArrow=classic;html=1;rounded=0;entryX=-0.08;entryY=0.5;entryDx=0;entryDy=0;entryPerimeter=0;" edge="1" parent="1" source="lAS-XWzIKTXeHEHVnumr-63" target="lAS-XWzIKTXeHEHVnumr-2">
          <mxGeometry width="50" height="50" relative="1" as="geometry">
            <mxPoint x="170" y="182" as="sourcePoint" />
            <mxPoint x="190" y="170" as="targetPoint" />
          </mxGeometry>
        </mxCell>
        <mxCell id="lAS-XWzIKTXeHEHVnumr-45" value="" style="group" vertex="1" connectable="0" parent="1">
          <mxGeometry x="-130" y="385.6" width="60" height="66" as="geometry" />
        </mxCell>
        <mxCell id="lAS-XWzIKTXeHEHVnumr-43" value="" style="aspect=fixed;html=1;points=[];align=center;image;fontSize=12;image=img/lib/azure2/management_governance/My_Customers.svg;rounded=0;dashed=1;fillColor=none;" vertex="1" parent="lAS-XWzIKTXeHEHVnumr-45">
          <mxGeometry x="10" width="44.36" height="36" as="geometry" />
        </mxCell>
        <mxCell id="lAS-XWzIKTXeHEHVnumr-44" value="User&lt;br&gt;(XPF IT)" style="text;html=1;align=center;verticalAlign=middle;resizable=0;points=[];autosize=1;strokeColor=none;fillColor=none;" vertex="1" parent="lAS-XWzIKTXeHEHVnumr-45">
          <mxGeometry y="36" width="60" height="30" as="geometry" />
        </mxCell>
        <mxCell id="lAS-XWzIKTXeHEHVnumr-46" value="" style="endArrow=classic;html=1;rounded=0;entryX=0.07;entryY=0.4;entryDx=0;entryDy=0;entryPerimeter=0;" edge="1" parent="1" source="lAS-XWzIKTXeHEHVnumr-43" target="lAS-XWzIKTXeHEHVnumr-37">
          <mxGeometry width="50" height="50" relative="1" as="geometry">
            <mxPoint x="120" y="390" as="sourcePoint" />
            <mxPoint x="170" y="340" as="targetPoint" />
          </mxGeometry>
        </mxCell>
        <mxCell id="lAS-XWzIKTXeHEHVnumr-49" value="" style="endArrow=classic;startArrow=classic;html=1;rounded=0;exitX=0.485;exitY=-0.068;exitDx=0;exitDy=0;exitPerimeter=0;" edge="1" parent="1" source="lAS-XWzIKTXeHEHVnumr-8" target="lAS-XWzIKTXeHEHVnumr-3">
          <mxGeometry width="50" height="50" relative="1" as="geometry">
            <mxPoint x="630" y="270" as="sourcePoint" />
            <mxPoint x="680" y="220" as="targetPoint" />
          </mxGeometry>
        </mxCell>
        <mxCell id="lAS-XWzIKTXeHEHVnumr-37" value="" style="ellipse;shape=cloud;whiteSpace=wrap;html=1;rounded=1;strokeWidth=1;fillColor=#FF9999;" vertex="1" parent="1">
          <mxGeometry x="40" y="371.6" width="120" height="80" as="geometry" />
        </mxCell>
        <mxCell id="lAS-XWzIKTXeHEHVnumr-38" value="CheckPoint&lt;br&gt;Cloud" style="text;html=1;align=center;verticalAlign=middle;resizable=0;points=[];autosize=1;strokeColor=none;fillColor=none;" vertex="1" parent="1">
          <mxGeometry x="60" y="403.6" width="80" height="30" as="geometry" />
        </mxCell>
        <mxCell id="lAS-XWzIKTXeHEHVnumr-52" value="" style="endArrow=classic;html=1;rounded=0;entryX=-0.027;entryY=0.455;entryDx=0;entryDy=0;entryPerimeter=0;" edge="1" parent="1">
          <mxGeometry width="50" height="50" relative="1" as="geometry">
            <mxPoint x="150" y="410" as="sourcePoint" />
            <mxPoint x="379.99911999999995" y="410.02" as="targetPoint" />
            <Array as="points">
              <mxPoint x="226" y="410" />
            </Array>
          </mxGeometry>
        </mxCell>
        <mxCell id="lAS-XWzIKTXeHEHVnumr-53" value="" style="endArrow=classic;html=1;rounded=0;exitX=1.027;exitY=0.523;exitDx=0;exitDy=0;exitPerimeter=0;entryX=0;entryY=0.523;entryDx=0;entryDy=0;entryPerimeter=0;" edge="1" parent="1" target="lAS-XWzIKTXeHEHVnumr-8">
          <mxGeometry width="50" height="50" relative="1" as="geometry">
            <mxPoint x="430.0008799999996" y="413.01199999999994" as="sourcePoint" />
            <mxPoint x="530" y="400" as="targetPoint" />
          </mxGeometry>
        </mxCell>
        <mxCell id="lAS-XWzIKTXeHEHVnumr-26" value="" style="rounded=1;whiteSpace=wrap;html=1;fillColor=none;strokeColor=#CC0000;" vertex="1" parent="1">
          <mxGeometry x="320" y="125" width="480" height="120" as="geometry" />
        </mxCell>
        <mxCell id="lAS-XWzIKTXeHEHVnumr-35" value="" style="aspect=fixed;html=1;points=[];align=center;image;fontSize=12;image=img/lib/azure2/networking/Network_Security_Groups.svg;rounded=1;strokeWidth=1;fillColor=none;" vertex="1" parent="1">
          <mxGeometry x="770" y="207" width="24.71" height="30" as="geometry" />
        </mxCell>
        <mxCell id="lAS-XWzIKTXeHEHVnumr-54" value="" style="endArrow=classic;html=1;rounded=0;exitX=0.563;exitY=-0.068;exitDx=0;exitDy=0;exitPerimeter=0;entryX=-0.042;entryY=0.705;entryDx=0;entryDy=0;entryPerimeter=0;" edge="1" parent="1" target="lAS-XWzIKTXeHEHVnumr-3">
          <mxGeometry width="50" height="50" relative="1" as="geometry">
            <mxPoint x="407.98871999999983" y="387.00800000000004" as="sourcePoint" />
            <mxPoint x="610" y="210" as="targetPoint" />
            <Array as="points">
              <mxPoint x="408" y="320" />
              <mxPoint x="608" y="320" />
            </Array>
          </mxGeometry>
        </mxCell>
        <mxCell id="lAS-XWzIKTXeHEHVnumr-22" value="" style="rounded=1;whiteSpace=wrap;html=1;fillColor=none;strokeColor=#CC0000;" vertex="1" parent="1">
          <mxGeometry x="320" y="366" width="480" height="116" as="geometry" />
        </mxCell>
        <mxCell id="lAS-XWzIKTXeHEHVnumr-34" value="" style="aspect=fixed;html=1;points=[];align=center;image;fontSize=12;image=img/lib/azure2/networking/Network_Security_Groups.svg;rounded=1;strokeWidth=1;fillColor=none;" vertex="1" parent="1">
          <mxGeometry x="770.0038709677419" y="440" width="24.71" height="30" as="geometry" />
        </mxCell>
        <mxCell id="lAS-XWzIKTXeHEHVnumr-28" value="" style="rounded=0;whiteSpace=wrap;html=1;fillColor=none;strokeWidth=1;dashed=1;strokeColor=#000099;" vertex="1" parent="1">
          <mxGeometry x="280" y="60" width="560" height="490" as="geometry" />
        </mxCell>
        <mxCell id="lAS-XWzIKTXeHEHVnumr-55" value="" style="group" vertex="1" connectable="0" parent="1">
          <mxGeometry x="280" y="30" width="130" height="30" as="geometry" />
        </mxCell>
        <mxCell id="lAS-XWzIKTXeHEHVnumr-31" value="" style="aspect=fixed;html=1;points=[];align=center;image;fontSize=12;image=img/lib/azure2/networking/Virtual_Networks.svg;rounded=0;strokeWidth=1;fillColor=none;" vertex="1" parent="lAS-XWzIKTXeHEHVnumr-55">
          <mxGeometry x="10.243479631234733" y="7.756604590731919" width="29.378299582381214" height="17.536837128673863" as="geometry" />
        </mxCell>
        <mxCell id="lAS-XWzIKTXeHEHVnumr-33" value="&lt;font style=&quot;font-size: 13px;&quot;&gt;xpfseaVnet&amp;nbsp;&lt;/font&gt;" style="text;html=1;align=center;verticalAlign=middle;resizable=0;points=[];autosize=1;strokeColor=none;fillColor=none;" vertex="1" parent="lAS-XWzIKTXeHEHVnumr-55">
          <mxGeometry x="46.03053435114504" y="3.5406249999999715" width="80" height="20" as="geometry" />
        </mxCell>
        <mxCell id="lAS-XWzIKTXeHEHVnumr-57" value="" style="pointerEvents=1;shadow=0;dashed=0;html=1;strokeColor=none;fillColor=#4495D1;labelPosition=center;verticalLabelPosition=bottom;verticalAlign=top;align=center;outlineConnect=0;shape=mxgraph.veeam.2d.proxy_appliance;rounded=1;" vertex="1" parent="1">
          <mxGeometry x="382.6" y="389.2" width="44.8" height="44.8" as="geometry" />
        </mxCell>
        <mxCell id="lAS-XWzIKTXeHEHVnumr-58" value="" style="group" vertex="1" connectable="0" parent="1">
          <mxGeometry x="320" y="490" width="240" height="20" as="geometry" />
        </mxCell>
        <mxCell id="lAS-XWzIKTXeHEHVnumr-25" value="&lt;div&gt;xpfprodseadbsubnet:&amp;nbsp;&lt;span style=&quot;background-color: initial;&quot;&gt;10.10.82.0/24&lt;/span&gt;&lt;/div&gt;" style="text;html=1;align=left;verticalAlign=middle;resizable=0;points=[];autosize=1;strokeColor=none;fillColor=none;" vertex="1" parent="lAS-XWzIKTXeHEHVnumr-58">
          <mxGeometry x="40" width="200" height="20" as="geometry" />
        </mxCell>
        <mxCell id="lAS-XWzIKTXeHEHVnumr-56" value="" style="aspect=fixed;html=1;points=[];align=center;image;fontSize=12;image=img/lib/azure2/networking/Virtual_Networks.svg;rounded=1;strokeColor=#CC0000;strokeWidth=1;fillColor=#FF9999;" vertex="1" parent="lAS-XWzIKTXeHEHVnumr-58">
          <mxGeometry width="33.5" height="20" as="geometry" />
        </mxCell>
        <mxCell id="lAS-XWzIKTXeHEHVnumr-59" value="Harmony Connect&lt;br&gt;10.10.82.6" style="text;html=1;align=left;verticalAlign=middle;resizable=0;points=[];autosize=1;strokeColor=none;fillColor=none;" vertex="1" parent="1">
          <mxGeometry x="380" y="440" width="110" height="30" as="geometry" />
        </mxCell>
        <mxCell id="lAS-XWzIKTXeHEHVnumr-61" value="" style="group" vertex="1" connectable="0" parent="1">
          <mxGeometry x="320" y="100" width="248.5" height="20" as="geometry" />
        </mxCell>
        <mxCell id="lAS-XWzIKTXeHEHVnumr-27" value="&lt;div&gt;xpfprodseawebsubnet:&amp;nbsp;&lt;span style=&quot;background-color: initial;&quot;&gt;10.10.82.0/24&lt;/span&gt;&lt;/div&gt;" style="text;html=1;align=left;verticalAlign=middle;resizable=0;points=[];autosize=1;strokeColor=none;fillColor=none;" vertex="1" parent="lAS-XWzIKTXeHEHVnumr-61">
          <mxGeometry x="38.5" width="210" height="20" as="geometry" />
        </mxCell>
        <mxCell id="lAS-XWzIKTXeHEHVnumr-60" value="" style="aspect=fixed;html=1;points=[];align=center;image;fontSize=12;image=img/lib/azure2/networking/Virtual_Networks.svg;rounded=1;strokeColor=#CC0000;strokeWidth=1;fillColor=#FF9999;" vertex="1" parent="lAS-XWzIKTXeHEHVnumr-61">
          <mxGeometry width="33.5" height="20" as="geometry" />
        </mxCell>
        <mxCell id="lAS-XWzIKTXeHEHVnumr-62" value="" style="group" vertex="1" connectable="0" parent="1">
          <mxGeometry x="-270" y="150" width="150" height="68" as="geometry" />
        </mxCell>
        <mxCell id="lAS-XWzIKTXeHEHVnumr-21" value="" style="aspect=fixed;html=1;points=[];align=center;image;fontSize=12;image=img/lib/azure2/management_governance/My_Customers.svg;rounded=0;dashed=1;fillColor=none;" vertex="1" parent="lAS-XWzIKTXeHEHVnumr-62">
          <mxGeometry x="55" width="44.36" height="36" as="geometry" />
        </mxCell>
        <mxCell id="lAS-XWzIKTXeHEHVnumr-29" value="User (Internal + External)&lt;br&gt;(From Public Internet)" style="text;html=1;align=center;verticalAlign=middle;resizable=0;points=[];autosize=1;strokeColor=none;fillColor=none;" vertex="1" parent="lAS-XWzIKTXeHEHVnumr-62">
          <mxGeometry y="38" width="150" height="30" as="geometry" />
        </mxCell>
        <mxCell id="lAS-XWzIKTXeHEHVnumr-63" value="" style="aspect=fixed;html=1;points=[];align=center;image;fontSize=12;image=img/lib/azure2/networking/DNS_Zones.svg;rounded=0;strokeColor=#000099;strokeWidth=1;fillColor=#FF9999;imageBackground=default;" vertex="1" parent="1">
          <mxGeometry x="40" y="157" width="50" height="50" as="geometry" />
        </mxCell>
        <mxCell id="lAS-XWzIKTXeHEHVnumr-64" value="Cloudflare" style="text;html=1;align=center;verticalAlign=middle;resizable=0;points=[];autosize=1;strokeColor=none;fillColor=none;fontSize=13;" vertex="1" parent="1">
          <mxGeometry x="30" y="212" width="70" height="20" as="geometry" />
        </mxCell>
        <mxCell id="lAS-XWzIKTXeHEHVnumr-65" value="bridge.x-pressfeeders.com:443&lt;br&gt;bridgeapi.x-pressfeeders.com:8443&lt;br&gt;bridgesetup.x-pressfeeders.com:8080" style="text;html=1;align=left;verticalAlign=middle;resizable=0;points=[];autosize=1;strokeColor=none;fillColor=none;fontSize=13;" vertex="1" parent="1">
          <mxGeometry x="-15" y="100" width="230" height="50" as="geometry" />
        </mxCell>
        <mxCell id="lAS-XWzIKTXeHEHVnumr-66" value="" style="endArrow=classic;html=1;rounded=0;fontSize=13;entryX=-0.04;entryY=0.46;entryDx=0;entryDy=0;entryPerimeter=0;" edge="1" parent="1" target="lAS-XWzIKTXeHEHVnumr-63">
          <mxGeometry width="50" height="50" relative="1" as="geometry">
            <mxPoint x="-170" y="180" as="sourcePoint" />
            <mxPoint x="-30" y="190" as="targetPoint" />
          </mxGeometry>
        </mxCell>
      </root>
    </mxGraphModel>
  </diagram>
</mxfile>
